<svg width="31" height="27" viewBox="0 0 31 27" fill="none" xmlns="http://www.w3.org/2000/svg">
<path fill-rule="evenodd" clip-rule="evenodd" d="M10.904 3.7C7.92162 3.7 5.50396 6.11766 5.50396 9.1V17.9C5.50396 20.8823 7.92162 23.3 10.904 23.3H19.704C22.6863 23.3 25.104 20.8823 25.104 17.9V9.1C25.104 6.11766 22.6863 3.7 19.704 3.7H10.904ZM4.30396 9.1C4.30396 5.45492 7.25888 2.5 10.904 2.5H19.704C23.349 2.5 26.304 5.45492 26.304 9.1V17.9C26.304 21.5451 23.349 24.5 19.704 24.5H10.904C7.25888 24.5 4.30396 21.5451 4.30396 17.9V9.1ZM15.304 9.2C12.9291 9.2 11.004 11.1252 11.004 13.5C11.004 15.8748 12.9291 17.8 15.304 17.8C17.6788 17.8 19.604 15.8748 19.604 13.5C19.604 11.1252 17.6788 9.2 15.304 9.2ZM9.80396 13.5C9.80396 10.4624 12.2664 8 15.304 8C18.3415 8 20.804 10.4624 20.804 13.5C20.804 16.5376 18.3415 19 15.304 19C12.2664 19 9.80396 16.5376 9.80396 13.5ZM20.904 5.89999C21.5115 5.89999 22.004 6.39247 22.004 6.99999C22.004 7.6075 21.5115 8.09999 20.904 8.09999C20.2965 8.09999 19.804 7.6075 19.804 6.99999C19.804 6.39247 20.2965 5.89999 20.904 5.89999Z" fill="black"/>
</svg>
