<svg width="31" height="27" viewBox="0 0 31 27" fill="none" xmlns="http://www.w3.org/2000/svg">
<path fill-rule="evenodd" clip-rule="evenodd" d="M5.91427 12.8381C5.91427 8.29375 9.60967 4.59938 14.1529 4.59938C18.6952 4.59938 22.3906 8.29375 22.3906 12.8381C22.3906 17.3824 18.6952 21.0767 14.1529 21.0767C9.60967 21.0767 5.91427 17.3824 5.91427 12.8381ZM21.1208 19.0319C22.5908 17.3803 23.4889 15.2144 23.4889 12.8381C23.4889 7.68914 19.2998 3.5 14.1529 3.5C9.00609 3.5 4.81592 7.68914 4.81592 12.8381C4.81592 17.987 9.00609 22.1761 14.1529 22.1761C16.5293 22.1761 18.6952 21.2738 20.3438 19.808L24.8756 24.3399C24.9845 24.4466 25.1251 24.5 25.2657 24.5C25.4053 24.5 25.5459 24.4466 25.6527 24.3399C25.8672 24.1253 25.8672 23.7784 25.6527 23.5638L21.1208 19.0319Z" fill="black" stroke="black" stroke-width="0.2"/>
</svg>
